%TF.GenerationSoftware,KiCad,Pcbnew,(5.1.7-0-10_14)*%
%TF.CreationDate,2020-11-25T20:53:36+11:00*%
%TF.ProjectId,CREMAv2,4352454d-4176-4322-9e6b-696361645f70,rev?*%
%TF.SameCoordinates,Original*%
%TF.FileFunction,Copper,L3,Inr*%
%TF.FilePolarity,Positive*%
%FSLAX46Y46*%
G04 Gerber Fmt 4.6, Leading zero omitted, Abs format (unit mm)*
G04 Created by KiCad (PCBNEW (5.1.7-0-10_14)) date 2020-11-25 20:53:36*
%MOMM*%
%LPD*%
G01*
G04 APERTURE LIST*
%TA.AperFunction,ViaPad*%
%ADD10C,0.800000*%
%TD*%
%TA.AperFunction,Conductor*%
%ADD11C,0.254000*%
%TD*%
%TA.AperFunction,Conductor*%
%ADD12C,0.100000*%
%TD*%
G04 APERTURE END LIST*
D10*
%TO.N,GND*%
X132920000Y-75995000D03*
X133247500Y-83922500D03*
X130207000Y-97885000D03*
X122750000Y-84260000D03*
X120396000Y-81280000D03*
X120396000Y-74676000D03*
X128200000Y-86798000D03*
X128200000Y-74492000D03*
X127400000Y-74530000D03*
%TO.N,+3V3*%
X129000000Y-78010000D03*
X133255000Y-82645000D03*
X130175000Y-95885000D03*
X118110000Y-88138000D03*
X132588000Y-92456000D03*
X131259000Y-84895000D03*
%TO.N,Net-(IC1-Pad32)*%
X122995000Y-76395000D03*
X121177000Y-80245000D03*
%TO.N,SPI_MOSI*%
X123190000Y-93726000D03*
X131715000Y-96885000D03*
%TD*%
D11*
%TO.N,+3V3*%
X138405001Y-100305000D02*
X110515000Y-100305000D01*
X110515000Y-97783061D01*
X129172000Y-97783061D01*
X129172000Y-97986939D01*
X129211774Y-98186898D01*
X129289795Y-98375256D01*
X129403063Y-98544774D01*
X129547226Y-98688937D01*
X129716744Y-98802205D01*
X129905102Y-98880226D01*
X130105061Y-98920000D01*
X130308939Y-98920000D01*
X130508898Y-98880226D01*
X130697256Y-98802205D01*
X130866774Y-98688937D01*
X131010937Y-98544774D01*
X131124205Y-98375256D01*
X131202226Y-98186898D01*
X131242000Y-97986939D01*
X131242000Y-97809353D01*
X131413102Y-97880226D01*
X131613061Y-97920000D01*
X131816939Y-97920000D01*
X132016898Y-97880226D01*
X132205256Y-97802205D01*
X132374774Y-97688937D01*
X132518937Y-97544774D01*
X132632205Y-97375256D01*
X132710226Y-97186898D01*
X132750000Y-96986939D01*
X132750000Y-96783061D01*
X132710226Y-96583102D01*
X132632205Y-96394744D01*
X132518937Y-96225226D01*
X132374774Y-96081063D01*
X132205256Y-95967795D01*
X132016898Y-95889774D01*
X131816939Y-95850000D01*
X131613061Y-95850000D01*
X131413102Y-95889774D01*
X131224744Y-95967795D01*
X131055226Y-96081063D01*
X130911063Y-96225226D01*
X130797795Y-96394744D01*
X130719774Y-96583102D01*
X130680000Y-96783061D01*
X130680000Y-96960647D01*
X130508898Y-96889774D01*
X130308939Y-96850000D01*
X130105061Y-96850000D01*
X129905102Y-96889774D01*
X129716744Y-96967795D01*
X129547226Y-97081063D01*
X129403063Y-97225226D01*
X129289795Y-97394744D01*
X129211774Y-97583102D01*
X129172000Y-97783061D01*
X110515000Y-97783061D01*
X110515000Y-93624061D01*
X122155000Y-93624061D01*
X122155000Y-93827939D01*
X122194774Y-94027898D01*
X122272795Y-94216256D01*
X122386063Y-94385774D01*
X122530226Y-94529937D01*
X122699744Y-94643205D01*
X122888102Y-94721226D01*
X123088061Y-94761000D01*
X123291939Y-94761000D01*
X123491898Y-94721226D01*
X123680256Y-94643205D01*
X123849774Y-94529937D01*
X123993937Y-94385774D01*
X124107205Y-94216256D01*
X124185226Y-94027898D01*
X124225000Y-93827939D01*
X124225000Y-93624061D01*
X124185226Y-93424102D01*
X124107205Y-93235744D01*
X123993937Y-93066226D01*
X123849774Y-92922063D01*
X123680256Y-92808795D01*
X123491898Y-92730774D01*
X123291939Y-92691000D01*
X123088061Y-92691000D01*
X122888102Y-92730774D01*
X122699744Y-92808795D01*
X122530226Y-92922063D01*
X122386063Y-93066226D01*
X122272795Y-93235744D01*
X122194774Y-93424102D01*
X122155000Y-93624061D01*
X110515000Y-93624061D01*
X110515000Y-86696061D01*
X127165000Y-86696061D01*
X127165000Y-86899939D01*
X127204774Y-87099898D01*
X127282795Y-87288256D01*
X127396063Y-87457774D01*
X127540226Y-87601937D01*
X127709744Y-87715205D01*
X127898102Y-87793226D01*
X128098061Y-87833000D01*
X128301939Y-87833000D01*
X128501898Y-87793226D01*
X128690256Y-87715205D01*
X128859774Y-87601937D01*
X129003937Y-87457774D01*
X129117205Y-87288256D01*
X129195226Y-87099898D01*
X129235000Y-86899939D01*
X129235000Y-86696061D01*
X129195226Y-86496102D01*
X129117205Y-86307744D01*
X129003937Y-86138226D01*
X128859774Y-85994063D01*
X128690256Y-85880795D01*
X128501898Y-85802774D01*
X128301939Y-85763000D01*
X128098061Y-85763000D01*
X127898102Y-85802774D01*
X127709744Y-85880795D01*
X127540226Y-85994063D01*
X127396063Y-86138226D01*
X127282795Y-86307744D01*
X127204774Y-86496102D01*
X127165000Y-86696061D01*
X110515000Y-86696061D01*
X110515000Y-84158061D01*
X121715000Y-84158061D01*
X121715000Y-84361939D01*
X121754774Y-84561898D01*
X121832795Y-84750256D01*
X121946063Y-84919774D01*
X122090226Y-85063937D01*
X122259744Y-85177205D01*
X122448102Y-85255226D01*
X122648061Y-85295000D01*
X122851939Y-85295000D01*
X123051898Y-85255226D01*
X123240256Y-85177205D01*
X123409774Y-85063937D01*
X123553937Y-84919774D01*
X123667205Y-84750256D01*
X123745226Y-84561898D01*
X123785000Y-84361939D01*
X123785000Y-84158061D01*
X123745226Y-83958102D01*
X123688255Y-83820561D01*
X132212500Y-83820561D01*
X132212500Y-84024439D01*
X132252274Y-84224398D01*
X132330295Y-84412756D01*
X132443563Y-84582274D01*
X132587726Y-84726437D01*
X132757244Y-84839705D01*
X132945602Y-84917726D01*
X133145561Y-84957500D01*
X133349439Y-84957500D01*
X133549398Y-84917726D01*
X133737756Y-84839705D01*
X133907274Y-84726437D01*
X134051437Y-84582274D01*
X134164705Y-84412756D01*
X134242726Y-84224398D01*
X134282500Y-84024439D01*
X134282500Y-83820561D01*
X134242726Y-83620602D01*
X134164705Y-83432244D01*
X134051437Y-83262726D01*
X133907274Y-83118563D01*
X133737756Y-83005295D01*
X133549398Y-82927274D01*
X133349439Y-82887500D01*
X133145561Y-82887500D01*
X132945602Y-82927274D01*
X132757244Y-83005295D01*
X132587726Y-83118563D01*
X132443563Y-83262726D01*
X132330295Y-83432244D01*
X132252274Y-83620602D01*
X132212500Y-83820561D01*
X123688255Y-83820561D01*
X123667205Y-83769744D01*
X123553937Y-83600226D01*
X123409774Y-83456063D01*
X123240256Y-83342795D01*
X123051898Y-83264774D01*
X122851939Y-83225000D01*
X122648061Y-83225000D01*
X122448102Y-83264774D01*
X122259744Y-83342795D01*
X122090226Y-83456063D01*
X121946063Y-83600226D01*
X121832795Y-83769744D01*
X121754774Y-83958102D01*
X121715000Y-84158061D01*
X110515000Y-84158061D01*
X110515000Y-81178061D01*
X119361000Y-81178061D01*
X119361000Y-81381939D01*
X119400774Y-81581898D01*
X119478795Y-81770256D01*
X119592063Y-81939774D01*
X119736226Y-82083937D01*
X119905744Y-82197205D01*
X120094102Y-82275226D01*
X120294061Y-82315000D01*
X120497939Y-82315000D01*
X120697898Y-82275226D01*
X120886256Y-82197205D01*
X121055774Y-82083937D01*
X121199937Y-81939774D01*
X121313205Y-81770256D01*
X121391226Y-81581898D01*
X121431000Y-81381939D01*
X121431000Y-81249753D01*
X121478898Y-81240226D01*
X121667256Y-81162205D01*
X121836774Y-81048937D01*
X121980937Y-80904774D01*
X122094205Y-80735256D01*
X122172226Y-80546898D01*
X122212000Y-80346939D01*
X122212000Y-80143061D01*
X122172226Y-79943102D01*
X122094205Y-79754744D01*
X121980937Y-79585226D01*
X121836774Y-79441063D01*
X121667256Y-79327795D01*
X121478898Y-79249774D01*
X121278939Y-79210000D01*
X121075061Y-79210000D01*
X120875102Y-79249774D01*
X120686744Y-79327795D01*
X120517226Y-79441063D01*
X120373063Y-79585226D01*
X120259795Y-79754744D01*
X120181774Y-79943102D01*
X120142000Y-80143061D01*
X120142000Y-80275247D01*
X120094102Y-80284774D01*
X119905744Y-80362795D01*
X119736226Y-80476063D01*
X119592063Y-80620226D01*
X119478795Y-80789744D01*
X119400774Y-80978102D01*
X119361000Y-81178061D01*
X110515000Y-81178061D01*
X110515000Y-76293061D01*
X121960000Y-76293061D01*
X121960000Y-76496939D01*
X121999774Y-76696898D01*
X122077795Y-76885256D01*
X122191063Y-77054774D01*
X122335226Y-77198937D01*
X122504744Y-77312205D01*
X122693102Y-77390226D01*
X122893061Y-77430000D01*
X123096939Y-77430000D01*
X123296898Y-77390226D01*
X123485256Y-77312205D01*
X123654774Y-77198937D01*
X123798937Y-77054774D01*
X123912205Y-76885256D01*
X123990226Y-76696898D01*
X124030000Y-76496939D01*
X124030000Y-76293061D01*
X123990226Y-76093102D01*
X123912205Y-75904744D01*
X123904399Y-75893061D01*
X131885000Y-75893061D01*
X131885000Y-76096939D01*
X131924774Y-76296898D01*
X132002795Y-76485256D01*
X132116063Y-76654774D01*
X132260226Y-76798937D01*
X132429744Y-76912205D01*
X132618102Y-76990226D01*
X132818061Y-77030000D01*
X133021939Y-77030000D01*
X133221898Y-76990226D01*
X133410256Y-76912205D01*
X133579774Y-76798937D01*
X133723937Y-76654774D01*
X133837205Y-76485256D01*
X133915226Y-76296898D01*
X133955000Y-76096939D01*
X133955000Y-75893061D01*
X133915226Y-75693102D01*
X133837205Y-75504744D01*
X133723937Y-75335226D01*
X133579774Y-75191063D01*
X133410256Y-75077795D01*
X133221898Y-74999774D01*
X133021939Y-74960000D01*
X132818061Y-74960000D01*
X132618102Y-74999774D01*
X132429744Y-75077795D01*
X132260226Y-75191063D01*
X132116063Y-75335226D01*
X132002795Y-75504744D01*
X131924774Y-75693102D01*
X131885000Y-75893061D01*
X123904399Y-75893061D01*
X123798937Y-75735226D01*
X123654774Y-75591063D01*
X123485256Y-75477795D01*
X123296898Y-75399774D01*
X123096939Y-75360000D01*
X122893061Y-75360000D01*
X122693102Y-75399774D01*
X122504744Y-75477795D01*
X122335226Y-75591063D01*
X122191063Y-75735226D01*
X122077795Y-75904744D01*
X121999774Y-76093102D01*
X121960000Y-76293061D01*
X110515000Y-76293061D01*
X110515000Y-74574061D01*
X119361000Y-74574061D01*
X119361000Y-74777939D01*
X119400774Y-74977898D01*
X119478795Y-75166256D01*
X119592063Y-75335774D01*
X119736226Y-75479937D01*
X119905744Y-75593205D01*
X120094102Y-75671226D01*
X120294061Y-75711000D01*
X120497939Y-75711000D01*
X120697898Y-75671226D01*
X120886256Y-75593205D01*
X121055774Y-75479937D01*
X121199937Y-75335774D01*
X121313205Y-75166256D01*
X121391226Y-74977898D01*
X121431000Y-74777939D01*
X121431000Y-74574061D01*
X121401960Y-74428061D01*
X126365000Y-74428061D01*
X126365000Y-74631939D01*
X126404774Y-74831898D01*
X126482795Y-75020256D01*
X126596063Y-75189774D01*
X126740226Y-75333937D01*
X126909744Y-75447205D01*
X127098102Y-75525226D01*
X127298061Y-75565000D01*
X127501939Y-75565000D01*
X127701898Y-75525226D01*
X127845870Y-75465591D01*
X127898102Y-75487226D01*
X128098061Y-75527000D01*
X128301939Y-75527000D01*
X128501898Y-75487226D01*
X128690256Y-75409205D01*
X128859774Y-75295937D01*
X129003937Y-75151774D01*
X129117205Y-74982256D01*
X129195226Y-74793898D01*
X129235000Y-74593939D01*
X129235000Y-74390061D01*
X129195226Y-74190102D01*
X129117205Y-74001744D01*
X129003937Y-73832226D01*
X128859774Y-73688063D01*
X128690256Y-73574795D01*
X128501898Y-73496774D01*
X128301939Y-73457000D01*
X128098061Y-73457000D01*
X127898102Y-73496774D01*
X127754130Y-73556409D01*
X127701898Y-73534774D01*
X127501939Y-73495000D01*
X127298061Y-73495000D01*
X127098102Y-73534774D01*
X126909744Y-73612795D01*
X126740226Y-73726063D01*
X126596063Y-73870226D01*
X126482795Y-74039744D01*
X126404774Y-74228102D01*
X126365000Y-74428061D01*
X121401960Y-74428061D01*
X121391226Y-74374102D01*
X121313205Y-74185744D01*
X121199937Y-74016226D01*
X121055774Y-73872063D01*
X120886256Y-73758795D01*
X120697898Y-73680774D01*
X120497939Y-73641000D01*
X120294061Y-73641000D01*
X120094102Y-73680774D01*
X119905744Y-73758795D01*
X119736226Y-73872063D01*
X119592063Y-74016226D01*
X119478795Y-74185744D01*
X119400774Y-74374102D01*
X119361000Y-74574061D01*
X110515000Y-74574061D01*
X110515000Y-68605000D01*
X138405000Y-68605000D01*
X138405001Y-100305000D01*
%TA.AperFunction,Conductor*%
D12*
G36*
X138405001Y-100305000D02*
G01*
X110515000Y-100305000D01*
X110515000Y-97783061D01*
X129172000Y-97783061D01*
X129172000Y-97986939D01*
X129211774Y-98186898D01*
X129289795Y-98375256D01*
X129403063Y-98544774D01*
X129547226Y-98688937D01*
X129716744Y-98802205D01*
X129905102Y-98880226D01*
X130105061Y-98920000D01*
X130308939Y-98920000D01*
X130508898Y-98880226D01*
X130697256Y-98802205D01*
X130866774Y-98688937D01*
X131010937Y-98544774D01*
X131124205Y-98375256D01*
X131202226Y-98186898D01*
X131242000Y-97986939D01*
X131242000Y-97809353D01*
X131413102Y-97880226D01*
X131613061Y-97920000D01*
X131816939Y-97920000D01*
X132016898Y-97880226D01*
X132205256Y-97802205D01*
X132374774Y-97688937D01*
X132518937Y-97544774D01*
X132632205Y-97375256D01*
X132710226Y-97186898D01*
X132750000Y-96986939D01*
X132750000Y-96783061D01*
X132710226Y-96583102D01*
X132632205Y-96394744D01*
X132518937Y-96225226D01*
X132374774Y-96081063D01*
X132205256Y-95967795D01*
X132016898Y-95889774D01*
X131816939Y-95850000D01*
X131613061Y-95850000D01*
X131413102Y-95889774D01*
X131224744Y-95967795D01*
X131055226Y-96081063D01*
X130911063Y-96225226D01*
X130797795Y-96394744D01*
X130719774Y-96583102D01*
X130680000Y-96783061D01*
X130680000Y-96960647D01*
X130508898Y-96889774D01*
X130308939Y-96850000D01*
X130105061Y-96850000D01*
X129905102Y-96889774D01*
X129716744Y-96967795D01*
X129547226Y-97081063D01*
X129403063Y-97225226D01*
X129289795Y-97394744D01*
X129211774Y-97583102D01*
X129172000Y-97783061D01*
X110515000Y-97783061D01*
X110515000Y-93624061D01*
X122155000Y-93624061D01*
X122155000Y-93827939D01*
X122194774Y-94027898D01*
X122272795Y-94216256D01*
X122386063Y-94385774D01*
X122530226Y-94529937D01*
X122699744Y-94643205D01*
X122888102Y-94721226D01*
X123088061Y-94761000D01*
X123291939Y-94761000D01*
X123491898Y-94721226D01*
X123680256Y-94643205D01*
X123849774Y-94529937D01*
X123993937Y-94385774D01*
X124107205Y-94216256D01*
X124185226Y-94027898D01*
X124225000Y-93827939D01*
X124225000Y-93624061D01*
X124185226Y-93424102D01*
X124107205Y-93235744D01*
X123993937Y-93066226D01*
X123849774Y-92922063D01*
X123680256Y-92808795D01*
X123491898Y-92730774D01*
X123291939Y-92691000D01*
X123088061Y-92691000D01*
X122888102Y-92730774D01*
X122699744Y-92808795D01*
X122530226Y-92922063D01*
X122386063Y-93066226D01*
X122272795Y-93235744D01*
X122194774Y-93424102D01*
X122155000Y-93624061D01*
X110515000Y-93624061D01*
X110515000Y-86696061D01*
X127165000Y-86696061D01*
X127165000Y-86899939D01*
X127204774Y-87099898D01*
X127282795Y-87288256D01*
X127396063Y-87457774D01*
X127540226Y-87601937D01*
X127709744Y-87715205D01*
X127898102Y-87793226D01*
X128098061Y-87833000D01*
X128301939Y-87833000D01*
X128501898Y-87793226D01*
X128690256Y-87715205D01*
X128859774Y-87601937D01*
X129003937Y-87457774D01*
X129117205Y-87288256D01*
X129195226Y-87099898D01*
X129235000Y-86899939D01*
X129235000Y-86696061D01*
X129195226Y-86496102D01*
X129117205Y-86307744D01*
X129003937Y-86138226D01*
X128859774Y-85994063D01*
X128690256Y-85880795D01*
X128501898Y-85802774D01*
X128301939Y-85763000D01*
X128098061Y-85763000D01*
X127898102Y-85802774D01*
X127709744Y-85880795D01*
X127540226Y-85994063D01*
X127396063Y-86138226D01*
X127282795Y-86307744D01*
X127204774Y-86496102D01*
X127165000Y-86696061D01*
X110515000Y-86696061D01*
X110515000Y-84158061D01*
X121715000Y-84158061D01*
X121715000Y-84361939D01*
X121754774Y-84561898D01*
X121832795Y-84750256D01*
X121946063Y-84919774D01*
X122090226Y-85063937D01*
X122259744Y-85177205D01*
X122448102Y-85255226D01*
X122648061Y-85295000D01*
X122851939Y-85295000D01*
X123051898Y-85255226D01*
X123240256Y-85177205D01*
X123409774Y-85063937D01*
X123553937Y-84919774D01*
X123667205Y-84750256D01*
X123745226Y-84561898D01*
X123785000Y-84361939D01*
X123785000Y-84158061D01*
X123745226Y-83958102D01*
X123688255Y-83820561D01*
X132212500Y-83820561D01*
X132212500Y-84024439D01*
X132252274Y-84224398D01*
X132330295Y-84412756D01*
X132443563Y-84582274D01*
X132587726Y-84726437D01*
X132757244Y-84839705D01*
X132945602Y-84917726D01*
X133145561Y-84957500D01*
X133349439Y-84957500D01*
X133549398Y-84917726D01*
X133737756Y-84839705D01*
X133907274Y-84726437D01*
X134051437Y-84582274D01*
X134164705Y-84412756D01*
X134242726Y-84224398D01*
X134282500Y-84024439D01*
X134282500Y-83820561D01*
X134242726Y-83620602D01*
X134164705Y-83432244D01*
X134051437Y-83262726D01*
X133907274Y-83118563D01*
X133737756Y-83005295D01*
X133549398Y-82927274D01*
X133349439Y-82887500D01*
X133145561Y-82887500D01*
X132945602Y-82927274D01*
X132757244Y-83005295D01*
X132587726Y-83118563D01*
X132443563Y-83262726D01*
X132330295Y-83432244D01*
X132252274Y-83620602D01*
X132212500Y-83820561D01*
X123688255Y-83820561D01*
X123667205Y-83769744D01*
X123553937Y-83600226D01*
X123409774Y-83456063D01*
X123240256Y-83342795D01*
X123051898Y-83264774D01*
X122851939Y-83225000D01*
X122648061Y-83225000D01*
X122448102Y-83264774D01*
X122259744Y-83342795D01*
X122090226Y-83456063D01*
X121946063Y-83600226D01*
X121832795Y-83769744D01*
X121754774Y-83958102D01*
X121715000Y-84158061D01*
X110515000Y-84158061D01*
X110515000Y-81178061D01*
X119361000Y-81178061D01*
X119361000Y-81381939D01*
X119400774Y-81581898D01*
X119478795Y-81770256D01*
X119592063Y-81939774D01*
X119736226Y-82083937D01*
X119905744Y-82197205D01*
X120094102Y-82275226D01*
X120294061Y-82315000D01*
X120497939Y-82315000D01*
X120697898Y-82275226D01*
X120886256Y-82197205D01*
X121055774Y-82083937D01*
X121199937Y-81939774D01*
X121313205Y-81770256D01*
X121391226Y-81581898D01*
X121431000Y-81381939D01*
X121431000Y-81249753D01*
X121478898Y-81240226D01*
X121667256Y-81162205D01*
X121836774Y-81048937D01*
X121980937Y-80904774D01*
X122094205Y-80735256D01*
X122172226Y-80546898D01*
X122212000Y-80346939D01*
X122212000Y-80143061D01*
X122172226Y-79943102D01*
X122094205Y-79754744D01*
X121980937Y-79585226D01*
X121836774Y-79441063D01*
X121667256Y-79327795D01*
X121478898Y-79249774D01*
X121278939Y-79210000D01*
X121075061Y-79210000D01*
X120875102Y-79249774D01*
X120686744Y-79327795D01*
X120517226Y-79441063D01*
X120373063Y-79585226D01*
X120259795Y-79754744D01*
X120181774Y-79943102D01*
X120142000Y-80143061D01*
X120142000Y-80275247D01*
X120094102Y-80284774D01*
X119905744Y-80362795D01*
X119736226Y-80476063D01*
X119592063Y-80620226D01*
X119478795Y-80789744D01*
X119400774Y-80978102D01*
X119361000Y-81178061D01*
X110515000Y-81178061D01*
X110515000Y-76293061D01*
X121960000Y-76293061D01*
X121960000Y-76496939D01*
X121999774Y-76696898D01*
X122077795Y-76885256D01*
X122191063Y-77054774D01*
X122335226Y-77198937D01*
X122504744Y-77312205D01*
X122693102Y-77390226D01*
X122893061Y-77430000D01*
X123096939Y-77430000D01*
X123296898Y-77390226D01*
X123485256Y-77312205D01*
X123654774Y-77198937D01*
X123798937Y-77054774D01*
X123912205Y-76885256D01*
X123990226Y-76696898D01*
X124030000Y-76496939D01*
X124030000Y-76293061D01*
X123990226Y-76093102D01*
X123912205Y-75904744D01*
X123904399Y-75893061D01*
X131885000Y-75893061D01*
X131885000Y-76096939D01*
X131924774Y-76296898D01*
X132002795Y-76485256D01*
X132116063Y-76654774D01*
X132260226Y-76798937D01*
X132429744Y-76912205D01*
X132618102Y-76990226D01*
X132818061Y-77030000D01*
X133021939Y-77030000D01*
X133221898Y-76990226D01*
X133410256Y-76912205D01*
X133579774Y-76798937D01*
X133723937Y-76654774D01*
X133837205Y-76485256D01*
X133915226Y-76296898D01*
X133955000Y-76096939D01*
X133955000Y-75893061D01*
X133915226Y-75693102D01*
X133837205Y-75504744D01*
X133723937Y-75335226D01*
X133579774Y-75191063D01*
X133410256Y-75077795D01*
X133221898Y-74999774D01*
X133021939Y-74960000D01*
X132818061Y-74960000D01*
X132618102Y-74999774D01*
X132429744Y-75077795D01*
X132260226Y-75191063D01*
X132116063Y-75335226D01*
X132002795Y-75504744D01*
X131924774Y-75693102D01*
X131885000Y-75893061D01*
X123904399Y-75893061D01*
X123798937Y-75735226D01*
X123654774Y-75591063D01*
X123485256Y-75477795D01*
X123296898Y-75399774D01*
X123096939Y-75360000D01*
X122893061Y-75360000D01*
X122693102Y-75399774D01*
X122504744Y-75477795D01*
X122335226Y-75591063D01*
X122191063Y-75735226D01*
X122077795Y-75904744D01*
X121999774Y-76093102D01*
X121960000Y-76293061D01*
X110515000Y-76293061D01*
X110515000Y-74574061D01*
X119361000Y-74574061D01*
X119361000Y-74777939D01*
X119400774Y-74977898D01*
X119478795Y-75166256D01*
X119592063Y-75335774D01*
X119736226Y-75479937D01*
X119905744Y-75593205D01*
X120094102Y-75671226D01*
X120294061Y-75711000D01*
X120497939Y-75711000D01*
X120697898Y-75671226D01*
X120886256Y-75593205D01*
X121055774Y-75479937D01*
X121199937Y-75335774D01*
X121313205Y-75166256D01*
X121391226Y-74977898D01*
X121431000Y-74777939D01*
X121431000Y-74574061D01*
X121401960Y-74428061D01*
X126365000Y-74428061D01*
X126365000Y-74631939D01*
X126404774Y-74831898D01*
X126482795Y-75020256D01*
X126596063Y-75189774D01*
X126740226Y-75333937D01*
X126909744Y-75447205D01*
X127098102Y-75525226D01*
X127298061Y-75565000D01*
X127501939Y-75565000D01*
X127701898Y-75525226D01*
X127845870Y-75465591D01*
X127898102Y-75487226D01*
X128098061Y-75527000D01*
X128301939Y-75527000D01*
X128501898Y-75487226D01*
X128690256Y-75409205D01*
X128859774Y-75295937D01*
X129003937Y-75151774D01*
X129117205Y-74982256D01*
X129195226Y-74793898D01*
X129235000Y-74593939D01*
X129235000Y-74390061D01*
X129195226Y-74190102D01*
X129117205Y-74001744D01*
X129003937Y-73832226D01*
X128859774Y-73688063D01*
X128690256Y-73574795D01*
X128501898Y-73496774D01*
X128301939Y-73457000D01*
X128098061Y-73457000D01*
X127898102Y-73496774D01*
X127754130Y-73556409D01*
X127701898Y-73534774D01*
X127501939Y-73495000D01*
X127298061Y-73495000D01*
X127098102Y-73534774D01*
X126909744Y-73612795D01*
X126740226Y-73726063D01*
X126596063Y-73870226D01*
X126482795Y-74039744D01*
X126404774Y-74228102D01*
X126365000Y-74428061D01*
X121401960Y-74428061D01*
X121391226Y-74374102D01*
X121313205Y-74185744D01*
X121199937Y-74016226D01*
X121055774Y-73872063D01*
X120886256Y-73758795D01*
X120697898Y-73680774D01*
X120497939Y-73641000D01*
X120294061Y-73641000D01*
X120094102Y-73680774D01*
X119905744Y-73758795D01*
X119736226Y-73872063D01*
X119592063Y-74016226D01*
X119478795Y-74185744D01*
X119400774Y-74374102D01*
X119361000Y-74574061D01*
X110515000Y-74574061D01*
X110515000Y-68605000D01*
X138405000Y-68605000D01*
X138405001Y-100305000D01*
G37*
%TD.AperFunction*%
%TD*%
M02*
