%TF.GenerationSoftware,KiCad,Pcbnew,(5.1.7-0-10_14)*%
%TF.CreationDate,2020-11-25T20:53:36+11:00*%
%TF.ProjectId,CREMAv2,4352454d-4176-4322-9e6b-696361645f70,rev?*%
%TF.SameCoordinates,Original*%
%TF.FileFunction,Copper,L1,Top*%
%TF.FilePolarity,Positive*%
%FSLAX46Y46*%
G04 Gerber Fmt 4.6, Leading zero omitted, Abs format (unit mm)*
G04 Created by KiCad (PCBNEW (5.1.7-0-10_14)) date 2020-11-25 20:53:36*
%MOMM*%
%LPD*%
G01*
G04 APERTURE LIST*
%TA.AperFunction,SMDPad,CuDef*%
%ADD10R,0.600000X1.750000*%
%TD*%
%TA.AperFunction,SMDPad,CuDef*%
%ADD11R,2.000000X0.500000*%
%TD*%
%TA.AperFunction,SMDPad,CuDef*%
%ADD12R,0.550000X1.600000*%
%TD*%
%TA.AperFunction,SMDPad,CuDef*%
%ADD13R,1.600000X0.550000*%
%TD*%
%TA.AperFunction,ViaPad*%
%ADD14C,0.800000*%
%TD*%
%TA.AperFunction,Conductor*%
%ADD15C,0.508000*%
%TD*%
%TA.AperFunction,Conductor*%
%ADD16C,0.254000*%
%TD*%
G04 APERTURE END LIST*
%TO.P,R12,2*%
%TO.N,SPI_MISO*%
%TA.AperFunction,SMDPad,CuDef*%
G36*
G01*
X127995000Y-92055000D02*
X128545000Y-92055000D01*
G75*
G02*
X128745000Y-92255000I0J-200000D01*
G01*
X128745000Y-92655000D01*
G75*
G02*
X128545000Y-92855000I-200000J0D01*
G01*
X127995000Y-92855000D01*
G75*
G02*
X127795000Y-92655000I0J200000D01*
G01*
X127795000Y-92255000D01*
G75*
G02*
X127995000Y-92055000I200000J0D01*
G01*
G37*
%TD.AperFunction*%
%TO.P,R12,1*%
%TO.N,Net-(IC1-Pad12)*%
%TA.AperFunction,SMDPad,CuDef*%
G36*
G01*
X127995000Y-90405000D02*
X128545000Y-90405000D01*
G75*
G02*
X128745000Y-90605000I0J-200000D01*
G01*
X128745000Y-91005000D01*
G75*
G02*
X128545000Y-91205000I-200000J0D01*
G01*
X127995000Y-91205000D01*
G75*
G02*
X127795000Y-91005000I0J200000D01*
G01*
X127795000Y-90605000D01*
G75*
G02*
X127995000Y-90405000I200000J0D01*
G01*
G37*
%TD.AperFunction*%
%TD*%
%TO.P,R11,2*%
%TO.N,Net-(IC1-Pad30)*%
%TA.AperFunction,SMDPad,CuDef*%
G36*
G01*
X126385000Y-70845000D02*
X126385000Y-71395000D01*
G75*
G02*
X126185000Y-71595000I-200000J0D01*
G01*
X125785000Y-71595000D01*
G75*
G02*
X125585000Y-71395000I0J200000D01*
G01*
X125585000Y-70845000D01*
G75*
G02*
X125785000Y-70645000I200000J0D01*
G01*
X126185000Y-70645000D01*
G75*
G02*
X126385000Y-70845000I0J-200000D01*
G01*
G37*
%TD.AperFunction*%
%TO.P,R11,1*%
%TO.N,RTD1P*%
%TA.AperFunction,SMDPad,CuDef*%
G36*
G01*
X128035000Y-70845000D02*
X128035000Y-71395000D01*
G75*
G02*
X127835000Y-71595000I-200000J0D01*
G01*
X127435000Y-71595000D01*
G75*
G02*
X127235000Y-71395000I0J200000D01*
G01*
X127235000Y-70845000D01*
G75*
G02*
X127435000Y-70645000I200000J0D01*
G01*
X127835000Y-70645000D01*
G75*
G02*
X128035000Y-70845000I0J-200000D01*
G01*
G37*
%TD.AperFunction*%
%TD*%
%TO.P,R10,2*%
%TO.N,SPI_CLK*%
%TA.AperFunction,SMDPad,CuDef*%
G36*
G01*
X125455000Y-92055000D02*
X126005000Y-92055000D01*
G75*
G02*
X126205000Y-92255000I0J-200000D01*
G01*
X126205000Y-92655000D01*
G75*
G02*
X126005000Y-92855000I-200000J0D01*
G01*
X125455000Y-92855000D01*
G75*
G02*
X125255000Y-92655000I0J200000D01*
G01*
X125255000Y-92255000D01*
G75*
G02*
X125455000Y-92055000I200000J0D01*
G01*
G37*
%TD.AperFunction*%
%TO.P,R10,1*%
%TO.N,Net-(IC1-Pad11)*%
%TA.AperFunction,SMDPad,CuDef*%
G36*
G01*
X125455000Y-90405000D02*
X126005000Y-90405000D01*
G75*
G02*
X126205000Y-90605000I0J-200000D01*
G01*
X126205000Y-91005000D01*
G75*
G02*
X126005000Y-91205000I-200000J0D01*
G01*
X125455000Y-91205000D01*
G75*
G02*
X125255000Y-91005000I0J200000D01*
G01*
X125255000Y-90605000D01*
G75*
G02*
X125455000Y-90405000I200000J0D01*
G01*
G37*
%TD.AperFunction*%
%TD*%
%TO.P,R9,2*%
%TO.N,SPI_MOSI*%
%TA.AperFunction,SMDPad,CuDef*%
G36*
G01*
X122915000Y-92055000D02*
X123465000Y-92055000D01*
G75*
G02*
X123665000Y-92255000I0J-200000D01*
G01*
X123665000Y-92655000D01*
G75*
G02*
X123465000Y-92855000I-200000J0D01*
G01*
X122915000Y-92855000D01*
G75*
G02*
X122715000Y-92655000I0J200000D01*
G01*
X122715000Y-92255000D01*
G75*
G02*
X122915000Y-92055000I200000J0D01*
G01*
G37*
%TD.AperFunction*%
%TO.P,R9,1*%
%TO.N,Net-(IC1-Pad10)*%
%TA.AperFunction,SMDPad,CuDef*%
G36*
G01*
X122915000Y-90405000D02*
X123465000Y-90405000D01*
G75*
G02*
X123665000Y-90605000I0J-200000D01*
G01*
X123665000Y-91005000D01*
G75*
G02*
X123465000Y-91205000I-200000J0D01*
G01*
X122915000Y-91205000D01*
G75*
G02*
X122715000Y-91005000I0J200000D01*
G01*
X122715000Y-90605000D01*
G75*
G02*
X122915000Y-90405000I200000J0D01*
G01*
G37*
%TD.AperFunction*%
%TD*%
%TO.P,R8,2*%
%TO.N,SPI_CS*%
%TA.AperFunction,SMDPad,CuDef*%
G36*
G01*
X120375000Y-92055000D02*
X120925000Y-92055000D01*
G75*
G02*
X121125000Y-92255000I0J-200000D01*
G01*
X121125000Y-92655000D01*
G75*
G02*
X120925000Y-92855000I-200000J0D01*
G01*
X120375000Y-92855000D01*
G75*
G02*
X120175000Y-92655000I0J200000D01*
G01*
X120175000Y-92255000D01*
G75*
G02*
X120375000Y-92055000I200000J0D01*
G01*
G37*
%TD.AperFunction*%
%TO.P,R8,1*%
%TO.N,Net-(IC1-Pad9)*%
%TA.AperFunction,SMDPad,CuDef*%
G36*
G01*
X120375000Y-90405000D02*
X120925000Y-90405000D01*
G75*
G02*
X121125000Y-90605000I0J-200000D01*
G01*
X121125000Y-91005000D01*
G75*
G02*
X120925000Y-91205000I-200000J0D01*
G01*
X120375000Y-91205000D01*
G75*
G02*
X120175000Y-91005000I0J200000D01*
G01*
X120175000Y-90605000D01*
G75*
G02*
X120375000Y-90405000I200000J0D01*
G01*
G37*
%TD.AperFunction*%
%TD*%
%TO.P,R7,2*%
%TO.N,Net-(IC1-Pad32)*%
%TA.AperFunction,SMDPad,CuDef*%
G36*
G01*
X123400000Y-70845000D02*
X123400000Y-71395000D01*
G75*
G02*
X123200000Y-71595000I-200000J0D01*
G01*
X122800000Y-71595000D01*
G75*
G02*
X122600000Y-71395000I0J200000D01*
G01*
X122600000Y-70845000D01*
G75*
G02*
X122800000Y-70645000I200000J0D01*
G01*
X123200000Y-70645000D01*
G75*
G02*
X123400000Y-70845000I0J-200000D01*
G01*
G37*
%TD.AperFunction*%
%TO.P,R7,1*%
%TO.N,RTD2P*%
%TA.AperFunction,SMDPad,CuDef*%
G36*
G01*
X125050000Y-70845000D02*
X125050000Y-71395000D01*
G75*
G02*
X124850000Y-71595000I-200000J0D01*
G01*
X124450000Y-71595000D01*
G75*
G02*
X124250000Y-71395000I0J200000D01*
G01*
X124250000Y-70845000D01*
G75*
G02*
X124450000Y-70645000I200000J0D01*
G01*
X124850000Y-70645000D01*
G75*
G02*
X125050000Y-70845000I0J-200000D01*
G01*
G37*
%TD.AperFunction*%
%TD*%
%TO.P,R6,2*%
%TO.N,+3V3*%
%TA.AperFunction,SMDPad,CuDef*%
G36*
G01*
X131043000Y-92056000D02*
X131593000Y-92056000D01*
G75*
G02*
X131793000Y-92256000I0J-200000D01*
G01*
X131793000Y-92656000D01*
G75*
G02*
X131593000Y-92856000I-200000J0D01*
G01*
X131043000Y-92856000D01*
G75*
G02*
X130843000Y-92656000I0J200000D01*
G01*
X130843000Y-92256000D01*
G75*
G02*
X131043000Y-92056000I200000J0D01*
G01*
G37*
%TD.AperFunction*%
%TO.P,R6,1*%
%TO.N,EXTI_A2DRDY*%
%TA.AperFunction,SMDPad,CuDef*%
G36*
G01*
X131043000Y-90406000D02*
X131593000Y-90406000D01*
G75*
G02*
X131793000Y-90606000I0J-200000D01*
G01*
X131793000Y-91006000D01*
G75*
G02*
X131593000Y-91206000I-200000J0D01*
G01*
X131043000Y-91206000D01*
G75*
G02*
X130843000Y-91006000I0J200000D01*
G01*
X130843000Y-90606000D01*
G75*
G02*
X131043000Y-90406000I200000J0D01*
G01*
G37*
%TD.AperFunction*%
%TD*%
%TO.P,R5,2*%
%TO.N,+3V3*%
%TA.AperFunction,SMDPad,CuDef*%
G36*
G01*
X118385000Y-89555000D02*
X117835000Y-89555000D01*
G75*
G02*
X117635000Y-89355000I0J200000D01*
G01*
X117635000Y-88955000D01*
G75*
G02*
X117835000Y-88755000I200000J0D01*
G01*
X118385000Y-88755000D01*
G75*
G02*
X118585000Y-88955000I0J-200000D01*
G01*
X118585000Y-89355000D01*
G75*
G02*
X118385000Y-89555000I-200000J0D01*
G01*
G37*
%TD.AperFunction*%
%TO.P,R5,1*%
%TO.N,Net-(IC1-Pad9)*%
%TA.AperFunction,SMDPad,CuDef*%
G36*
G01*
X118385000Y-91205000D02*
X117835000Y-91205000D01*
G75*
G02*
X117635000Y-91005000I0J200000D01*
G01*
X117635000Y-90605000D01*
G75*
G02*
X117835000Y-90405000I200000J0D01*
G01*
X118385000Y-90405000D01*
G75*
G02*
X118585000Y-90605000I0J-200000D01*
G01*
X118585000Y-91005000D01*
G75*
G02*
X118385000Y-91205000I-200000J0D01*
G01*
G37*
%TD.AperFunction*%
%TD*%
%TO.P,R4,2*%
%TO.N,RTD1N*%
%TA.AperFunction,SMDPad,CuDef*%
G36*
G01*
X117748000Y-83799000D02*
X117748000Y-84349000D01*
G75*
G02*
X117548000Y-84549000I-200000J0D01*
G01*
X117148000Y-84549000D01*
G75*
G02*
X116948000Y-84349000I0J200000D01*
G01*
X116948000Y-83799000D01*
G75*
G02*
X117148000Y-83599000I200000J0D01*
G01*
X117548000Y-83599000D01*
G75*
G02*
X117748000Y-83799000I0J-200000D01*
G01*
G37*
%TD.AperFunction*%
%TO.P,R4,1*%
%TO.N,Net-(IC1-Pad6)*%
%TA.AperFunction,SMDPad,CuDef*%
G36*
G01*
X119398000Y-83799000D02*
X119398000Y-84349000D01*
G75*
G02*
X119198000Y-84549000I-200000J0D01*
G01*
X118798000Y-84549000D01*
G75*
G02*
X118598000Y-84349000I0J200000D01*
G01*
X118598000Y-83799000D01*
G75*
G02*
X118798000Y-83599000I200000J0D01*
G01*
X119198000Y-83599000D01*
G75*
G02*
X119398000Y-83799000I0J-200000D01*
G01*
G37*
%TD.AperFunction*%
%TD*%
%TO.P,R3,2*%
%TO.N,RTD2N*%
%TA.AperFunction,SMDPad,CuDef*%
G36*
G01*
X117748000Y-77449000D02*
X117748000Y-77999000D01*
G75*
G02*
X117548000Y-78199000I-200000J0D01*
G01*
X117148000Y-78199000D01*
G75*
G02*
X116948000Y-77999000I0J200000D01*
G01*
X116948000Y-77449000D01*
G75*
G02*
X117148000Y-77249000I200000J0D01*
G01*
X117548000Y-77249000D01*
G75*
G02*
X117748000Y-77449000I0J-200000D01*
G01*
G37*
%TD.AperFunction*%
%TO.P,R3,1*%
%TO.N,Net-(IC1-Pad2)*%
%TA.AperFunction,SMDPad,CuDef*%
G36*
G01*
X119398000Y-77449000D02*
X119398000Y-77999000D01*
G75*
G02*
X119198000Y-78199000I-200000J0D01*
G01*
X118798000Y-78199000D01*
G75*
G02*
X118598000Y-77999000I0J200000D01*
G01*
X118598000Y-77449000D01*
G75*
G02*
X118798000Y-77249000I200000J0D01*
G01*
X119198000Y-77249000D01*
G75*
G02*
X119398000Y-77449000I0J-200000D01*
G01*
G37*
%TD.AperFunction*%
%TD*%
%TO.P,R2,2*%
%TO.N,RTD2N*%
%TA.AperFunction,SMDPad,CuDef*%
G36*
G01*
X117748000Y-74401000D02*
X117748000Y-74951000D01*
G75*
G02*
X117548000Y-75151000I-200000J0D01*
G01*
X117148000Y-75151000D01*
G75*
G02*
X116948000Y-74951000I0J200000D01*
G01*
X116948000Y-74401000D01*
G75*
G02*
X117148000Y-74201000I200000J0D01*
G01*
X117548000Y-74201000D01*
G75*
G02*
X117748000Y-74401000I0J-200000D01*
G01*
G37*
%TD.AperFunction*%
%TO.P,R2,1*%
%TO.N,GND*%
%TA.AperFunction,SMDPad,CuDef*%
G36*
G01*
X119398000Y-74401000D02*
X119398000Y-74951000D01*
G75*
G02*
X119198000Y-75151000I-200000J0D01*
G01*
X118798000Y-75151000D01*
G75*
G02*
X118598000Y-74951000I0J200000D01*
G01*
X118598000Y-74401000D01*
G75*
G02*
X118798000Y-74201000I200000J0D01*
G01*
X119198000Y-74201000D01*
G75*
G02*
X119398000Y-74401000I0J-200000D01*
G01*
G37*
%TD.AperFunction*%
%TD*%
%TO.P,R1,2*%
%TO.N,RTD1N*%
%TA.AperFunction,SMDPad,CuDef*%
G36*
G01*
X117748000Y-81005000D02*
X117748000Y-81555000D01*
G75*
G02*
X117548000Y-81755000I-200000J0D01*
G01*
X117148000Y-81755000D01*
G75*
G02*
X116948000Y-81555000I0J200000D01*
G01*
X116948000Y-81005000D01*
G75*
G02*
X117148000Y-80805000I200000J0D01*
G01*
X117548000Y-80805000D01*
G75*
G02*
X117748000Y-81005000I0J-200000D01*
G01*
G37*
%TD.AperFunction*%
%TO.P,R1,1*%
%TO.N,GND*%
%TA.AperFunction,SMDPad,CuDef*%
G36*
G01*
X119398000Y-81005000D02*
X119398000Y-81555000D01*
G75*
G02*
X119198000Y-81755000I-200000J0D01*
G01*
X118798000Y-81755000D01*
G75*
G02*
X118598000Y-81555000I0J200000D01*
G01*
X118598000Y-81005000D01*
G75*
G02*
X118798000Y-80805000I200000J0D01*
G01*
X119198000Y-80805000D01*
G75*
G02*
X119398000Y-81005000I0J-200000D01*
G01*
G37*
%TD.AperFunction*%
%TD*%
D10*
%TO.P,J3,2*%
%TO.N,RTD2N*%
X114554000Y-77724000D03*
%TO.P,J3,1*%
%TO.N,RTD2P*%
X113554000Y-79474000D03*
%TD*%
%TO.P,J2,2*%
%TO.N,RTD1N*%
X114554000Y-84074000D03*
%TO.P,J2,1*%
%TO.N,RTD1P*%
X113554000Y-85824000D03*
%TD*%
D11*
%TO.P,J1,6*%
%TO.N,GND*%
X128395000Y-97885000D03*
%TO.P,J1,5*%
%TO.N,SPI_CS*%
X125095000Y-97885000D03*
%TO.P,J1,4*%
%TO.N,SPI_MOSI*%
X128395000Y-96885000D03*
%TO.P,J1,3*%
%TO.N,SPI_CLK*%
X125095000Y-96885000D03*
%TO.P,J1,2*%
%TO.N,+3V3*%
X128395000Y-95885000D03*
%TO.P,J1,1*%
%TO.N,SPI_MISO*%
X125095000Y-95885000D03*
%TD*%
D12*
%TO.P,IC1,32*%
%TO.N,Net-(IC1-Pad32)*%
X124200000Y-76395000D03*
%TO.P,IC1,31*%
%TO.N,RTD2P*%
X125000000Y-76395000D03*
%TO.P,IC1,30*%
%TO.N,Net-(IC1-Pad30)*%
X125800000Y-76395000D03*
%TO.P,IC1,29*%
%TO.N,RTD1P*%
X126600000Y-76395000D03*
%TO.P,IC1,28*%
%TO.N,GND*%
X127400000Y-76395000D03*
%TO.P,IC1,27*%
X128200000Y-76395000D03*
%TO.P,IC1,26*%
%TO.N,+3V3*%
X129000000Y-76395000D03*
%TO.P,IC1,25*%
%TO.N,N/C*%
X129800000Y-76395000D03*
D13*
%TO.P,IC1,24*%
%TO.N,GND*%
X131250000Y-77845000D03*
%TO.P,IC1,23*%
%TO.N,Net-(C3-Pad2)*%
X131250000Y-78645000D03*
%TO.P,IC1,22*%
%TO.N,N/C*%
X131250000Y-79445000D03*
%TO.P,IC1,21*%
X131250000Y-80245000D03*
%TO.P,IC1,20*%
X131250000Y-81045000D03*
%TO.P,IC1,19*%
X131250000Y-81845000D03*
%TO.P,IC1,18*%
%TO.N,+3V3*%
X131250000Y-82645000D03*
%TO.P,IC1,17*%
%TO.N,GND*%
X131250000Y-83445000D03*
D12*
%TO.P,IC1,16*%
%TO.N,+3V3*%
X129800000Y-84895000D03*
%TO.P,IC1,15*%
X129000000Y-84895000D03*
%TO.P,IC1,14*%
%TO.N,GND*%
X128200000Y-84895000D03*
%TO.P,IC1,13*%
%TO.N,EXTI_A2DRDY*%
X127400000Y-84895000D03*
%TO.P,IC1,12*%
%TO.N,Net-(IC1-Pad12)*%
X126600000Y-84895000D03*
%TO.P,IC1,11*%
%TO.N,Net-(IC1-Pad11)*%
X125800000Y-84895000D03*
%TO.P,IC1,10*%
%TO.N,Net-(IC1-Pad10)*%
X125000000Y-84895000D03*
%TO.P,IC1,9*%
%TO.N,Net-(IC1-Pad9)*%
X124200000Y-84895000D03*
D13*
%TO.P,IC1,8*%
%TO.N,GND*%
X122750000Y-83445000D03*
%TO.P,IC1,7*%
%TO.N,RTD1P*%
X122750000Y-82645000D03*
%TO.P,IC1,6*%
%TO.N,Net-(IC1-Pad6)*%
X122750000Y-81845000D03*
%TO.P,IC1,5*%
%TO.N,Net-(IC1-Pad30)*%
X122750000Y-81045000D03*
%TO.P,IC1,4*%
%TO.N,Net-(IC1-Pad32)*%
X122750000Y-80245000D03*
%TO.P,IC1,3*%
%TO.N,RTD2P*%
X122750000Y-79445000D03*
%TO.P,IC1,2*%
%TO.N,Net-(IC1-Pad2)*%
X122750000Y-78645000D03*
%TO.P,IC1,1*%
%TO.N,N/C*%
X122750000Y-77845000D03*
%TD*%
%TO.P,C3,2*%
%TO.N,Net-(C3-Pad2)*%
%TA.AperFunction,SMDPad,CuDef*%
G36*
G01*
X133969999Y-78370000D02*
X135270001Y-78370000D01*
G75*
G02*
X135520000Y-78619999I0J-249999D01*
G01*
X135520000Y-79270001D01*
G75*
G02*
X135270001Y-79520000I-249999J0D01*
G01*
X133969999Y-79520000D01*
G75*
G02*
X133720000Y-79270001I0J249999D01*
G01*
X133720000Y-78619999D01*
G75*
G02*
X133969999Y-78370000I249999J0D01*
G01*
G37*
%TD.AperFunction*%
%TO.P,C3,1*%
%TO.N,GND*%
%TA.AperFunction,SMDPad,CuDef*%
G36*
G01*
X133969999Y-75420000D02*
X135270001Y-75420000D01*
G75*
G02*
X135520000Y-75669999I0J-249999D01*
G01*
X135520000Y-76320001D01*
G75*
G02*
X135270001Y-76570000I-249999J0D01*
G01*
X133969999Y-76570000D01*
G75*
G02*
X133720000Y-76320001I0J249999D01*
G01*
X133720000Y-75669999D01*
G75*
G02*
X133969999Y-75420000I249999J0D01*
G01*
G37*
%TD.AperFunction*%
%TD*%
%TO.P,C2,2*%
%TO.N,GND*%
%TA.AperFunction,SMDPad,CuDef*%
G36*
G01*
X133969999Y-84720000D02*
X135270001Y-84720000D01*
G75*
G02*
X135520000Y-84969999I0J-249999D01*
G01*
X135520000Y-85620001D01*
G75*
G02*
X135270001Y-85870000I-249999J0D01*
G01*
X133969999Y-85870000D01*
G75*
G02*
X133720000Y-85620001I0J249999D01*
G01*
X133720000Y-84969999D01*
G75*
G02*
X133969999Y-84720000I249999J0D01*
G01*
G37*
%TD.AperFunction*%
%TO.P,C2,1*%
%TO.N,+3V3*%
%TA.AperFunction,SMDPad,CuDef*%
G36*
G01*
X133969999Y-81770000D02*
X135270001Y-81770000D01*
G75*
G02*
X135520000Y-82019999I0J-249999D01*
G01*
X135520000Y-82670001D01*
G75*
G02*
X135270001Y-82920000I-249999J0D01*
G01*
X133969999Y-82920000D01*
G75*
G02*
X133720000Y-82670001I0J249999D01*
G01*
X133720000Y-82019999D01*
G75*
G02*
X133969999Y-81770000I249999J0D01*
G01*
G37*
%TD.AperFunction*%
%TD*%
%TO.P,C1,2*%
%TO.N,GND*%
%TA.AperFunction,SMDPad,CuDef*%
G36*
G01*
X130369000Y-87487999D02*
X130369000Y-88788001D01*
G75*
G02*
X130119001Y-89038000I-249999J0D01*
G01*
X129468999Y-89038000D01*
G75*
G02*
X129219000Y-88788001I0J249999D01*
G01*
X129219000Y-87487999D01*
G75*
G02*
X129468999Y-87238000I249999J0D01*
G01*
X130119001Y-87238000D01*
G75*
G02*
X130369000Y-87487999I0J-249999D01*
G01*
G37*
%TD.AperFunction*%
%TO.P,C1,1*%
%TO.N,+3V3*%
%TA.AperFunction,SMDPad,CuDef*%
G36*
G01*
X133319000Y-87487999D02*
X133319000Y-88788001D01*
G75*
G02*
X133069001Y-89038000I-249999J0D01*
G01*
X132418999Y-89038000D01*
G75*
G02*
X132169000Y-88788001I0J249999D01*
G01*
X132169000Y-87487999D01*
G75*
G02*
X132418999Y-87238000I249999J0D01*
G01*
X133069001Y-87238000D01*
G75*
G02*
X133319000Y-87487999I0J-249999D01*
G01*
G37*
%TD.AperFunction*%
%TD*%
D14*
%TO.N,GND*%
X132920000Y-75995000D03*
X133247500Y-83922500D03*
X130207000Y-97885000D03*
X122750000Y-84260000D03*
X120396000Y-81280000D03*
X120396000Y-74676000D03*
X128200000Y-86798000D03*
X128200000Y-74492000D03*
X127400000Y-74530000D03*
%TO.N,+3V3*%
X129000000Y-78010000D03*
X133255000Y-82645000D03*
X130175000Y-95885000D03*
X118110000Y-88138000D03*
X132588000Y-92456000D03*
X131259000Y-84895000D03*
%TO.N,Net-(IC1-Pad32)*%
X122995000Y-76395000D03*
X121177000Y-80245000D03*
%TO.N,SPI_MOSI*%
X123190000Y-93726000D03*
X131715000Y-96885000D03*
%TD*%
D15*
%TO.N,GND*%
X131250000Y-77845000D02*
X131250000Y-77030000D01*
X132285000Y-75995000D02*
X132920000Y-75995000D01*
X131250000Y-77030000D02*
X132285000Y-75995000D01*
X132920000Y-75995000D02*
X134620000Y-75995000D01*
X132770000Y-83445000D02*
X133247500Y-83922500D01*
X131250000Y-83445000D02*
X132770000Y-83445000D01*
X133247500Y-83922500D02*
X134620000Y-85295000D01*
X128395000Y-97885000D02*
X130207000Y-97885000D01*
X130207000Y-97885000D02*
X130207000Y-97885000D01*
X122750000Y-83445000D02*
X122750000Y-84260000D01*
X122750000Y-84260000D02*
X122750000Y-84260000D01*
X118998000Y-81280000D02*
X120396000Y-81280000D01*
X120396000Y-81280000D02*
X120396000Y-81280000D01*
X118998000Y-74676000D02*
X120396000Y-74676000D01*
X120396000Y-74676000D02*
X120396000Y-74676000D01*
X128200000Y-84895000D02*
X128200000Y-86798000D01*
X128200000Y-86798000D02*
X128200000Y-86798000D01*
X128454000Y-86798000D02*
X129794000Y-88138000D01*
X128200000Y-86798000D02*
X128454000Y-86798000D01*
X127400000Y-76395000D02*
X127400000Y-74530000D01*
X128200000Y-76395000D02*
X128200000Y-74492000D01*
X128200000Y-74492000D02*
X128200000Y-74492000D01*
X127400000Y-74530000D02*
X127400000Y-74530000D01*
%TO.N,+3V3*%
X129000000Y-76395000D02*
X129000000Y-78010000D01*
X129000000Y-78010000D02*
X129000000Y-78010000D01*
X134320000Y-82645000D02*
X134620000Y-82345000D01*
X131250000Y-82645000D02*
X133255000Y-82645000D01*
X133255000Y-82645000D02*
X134320000Y-82645000D01*
X129000000Y-84895000D02*
X129800000Y-84895000D01*
X128395000Y-95885000D02*
X130175000Y-95885000D01*
X130175000Y-95885000D02*
X130175000Y-95885000D01*
X118110000Y-89155000D02*
X118110000Y-88138000D01*
X118110000Y-88138000D02*
X118110000Y-88138000D01*
X131318000Y-92456000D02*
X132588000Y-92456000D01*
X132588000Y-92456000D02*
X132588000Y-92456000D01*
X129800000Y-84895000D02*
X131259000Y-84895000D01*
X131259000Y-84895000D02*
X131259000Y-84895000D01*
X131259000Y-86653000D02*
X132744000Y-88138000D01*
X131259000Y-84895000D02*
X131259000Y-86653000D01*
%TO.N,Net-(C3-Pad2)*%
X134320000Y-78645000D02*
X134620000Y-78945000D01*
X131250000Y-78645000D02*
X134320000Y-78645000D01*
D16*
%TO.N,Net-(IC1-Pad32)*%
X124200000Y-72320000D02*
X123000000Y-71120000D01*
X124200000Y-76395000D02*
X124200000Y-72320000D01*
X124200000Y-76395000D02*
X122995000Y-76395000D01*
X122995000Y-76395000D02*
X122995000Y-76395000D01*
X122750000Y-80245000D02*
X121177000Y-80245000D01*
X121177000Y-80245000D02*
X121177000Y-80245000D01*
%TO.N,RTD2P*%
X125000000Y-71470000D02*
X124650000Y-71120000D01*
X125000000Y-76395000D02*
X125000000Y-71470000D01*
X113583000Y-79445000D02*
X113554000Y-79474000D01*
X122750000Y-79445000D02*
X113583000Y-79445000D01*
X125000000Y-78249000D02*
X125000000Y-76395000D01*
X123804000Y-79445000D02*
X125000000Y-78249000D01*
X122750000Y-79445000D02*
X123804000Y-79445000D01*
%TO.N,Net-(IC1-Pad30)*%
X125800000Y-71305000D02*
X125985000Y-71120000D01*
X125800000Y-76395000D02*
X125800000Y-71305000D01*
X125800000Y-79049000D02*
X125800000Y-76395000D01*
X123804000Y-81045000D02*
X125800000Y-79049000D01*
X122750000Y-81045000D02*
X123804000Y-81045000D01*
%TO.N,RTD1P*%
X126600000Y-72155000D02*
X127635000Y-71120000D01*
X126600000Y-76395000D02*
X126600000Y-72155000D01*
X118517000Y-85824000D02*
X113554000Y-85824000D01*
X121696000Y-82645000D02*
X118517000Y-85824000D01*
X122750000Y-82645000D02*
X121696000Y-82645000D01*
X126600000Y-79849000D02*
X126600000Y-76395000D01*
X123804000Y-82645000D02*
X126600000Y-79849000D01*
X122750000Y-82645000D02*
X123804000Y-82645000D01*
%TO.N,Net-(IC1-Pad12)*%
X126600000Y-89135000D02*
X128270000Y-90805000D01*
X126600000Y-84895000D02*
X126600000Y-89135000D01*
%TO.N,Net-(IC1-Pad11)*%
X125800000Y-90735000D02*
X125730000Y-90805000D01*
X125800000Y-84895000D02*
X125800000Y-90735000D01*
%TO.N,Net-(IC1-Pad10)*%
X125000000Y-88995000D02*
X123190000Y-90805000D01*
X125000000Y-84895000D02*
X125000000Y-88995000D01*
%TO.N,Net-(IC1-Pad9)*%
X124200000Y-87255000D02*
X120650000Y-90805000D01*
X124200000Y-84895000D02*
X124200000Y-87255000D01*
X118110000Y-90805000D02*
X120650000Y-90805000D01*
%TO.N,Net-(IC1-Pad6)*%
X122680000Y-81915000D02*
X122750000Y-81845000D01*
X121227000Y-81845000D02*
X118998000Y-84074000D01*
X122750000Y-81845000D02*
X121227000Y-81845000D01*
%TO.N,Net-(IC1-Pad2)*%
X122655000Y-78740000D02*
X122750000Y-78645000D01*
X119919000Y-78645000D02*
X122750000Y-78645000D01*
X118998000Y-77724000D02*
X119919000Y-78645000D01*
%TO.N,SPI_CS*%
X120650000Y-94336067D02*
X124198933Y-97885000D01*
X124198933Y-97885000D02*
X125095000Y-97885000D01*
X120650000Y-92455000D02*
X120650000Y-94336067D01*
%TO.N,SPI_MOSI*%
X123190000Y-92455000D02*
X123190000Y-93726000D01*
X123190000Y-93726000D02*
X123190000Y-93726000D01*
X128395000Y-96885000D02*
X131715000Y-96885000D01*
X131715000Y-96885000D02*
X131715000Y-96885000D01*
%TO.N,SPI_CLK*%
X123767999Y-96811999D02*
X123841000Y-96885000D01*
X123841000Y-96885000D02*
X125095000Y-96885000D01*
X123767999Y-94417001D02*
X123767999Y-96811999D01*
X125730000Y-92455000D02*
X123767999Y-94417001D01*
%TO.N,SPI_MISO*%
X128270000Y-92710000D02*
X125095000Y-95885000D01*
X128270000Y-92455000D02*
X128270000Y-92710000D01*
%TO.N,RTD1N*%
X117348000Y-84074000D02*
X114554000Y-84074000D01*
X117348000Y-84074000D02*
X117348000Y-81280000D01*
%TO.N,RTD2N*%
X114554000Y-77724000D02*
X117348000Y-77724000D01*
X117348000Y-77724000D02*
X117348000Y-74676000D01*
%TO.N,EXTI_A2DRDY*%
X127400000Y-84895000D02*
X127400000Y-88538000D01*
X127400000Y-88538000D02*
X128778000Y-89916000D01*
X130428000Y-89916000D02*
X131318000Y-90806000D01*
X128778000Y-89916000D02*
X130428000Y-89916000D01*
%TD*%
M02*
